<?xml version="1.0" encoding="utf-8"?>
<svg width="50.00009px" height="50.000015px" viewBox="0 0 50.00009 50.000015" version="1.1" xmlns:xlink="http://www.w3.org/1999/xlink" xmlns="http://www.w3.org/2000/svg">
  <g id="logo">
    <g id="Group-3">
      <path d="M12.3902 3.5327C12.3902 3.62095 12.3902 3.68295 12.3902 3.74495C12.3902 10.5615 12.3885 17.3782 12.393 24.1947C12.3935 24.8892 12.4062 25.5855 12.4587 26.2775C12.5517 27.5014 12.8537 28.6807 13.3255 29.8139C14.467 32.5557 16.3455 34.643 18.9387 36.0835C20.1227 36.7412 21.3907 37.1752 22.7235 37.4162C23.6785 37.589 24.6425 37.6467 25.6102 37.5919C27.8252 37.4665 29.8747 36.8145 31.735 35.6012C34.1555 34.0224 35.8442 31.863 36.7997 29.1352C37.1607 28.1049 37.3712 27.0422 37.4432 25.9522C37.6197 23.2837 37.0297 20.7972 35.629 18.5189C34.1615 16.132 32.1107 14.424 29.5067 13.386C28.5045 12.9865 27.4647 12.7307 26.3922 12.6122C23.4422 12.2867 20.7097 12.912 18.196 14.491C18.169 14.508 18.1397 14.5217 18.098 14.5442C18.0955 14.4875 18.0917 14.4437 18.0917 14.4C18.0915 10.0125 18.092 5.62495 18.0885 1.23745C18.0885 1.1232 18.1255 1.0802 18.2297 1.05145C19.3545 0.74195 20.4945 0.5072 21.6502 0.35145C23.057 0.1617 24.471 0.10145 25.8887 0.1522C27.0297 0.19295 28.163 0.31545 29.2885 0.5142C32.1565 1.0202 34.858 1.9912 37.373 3.4572C41.9022 6.0967 45.2915 9.7912 47.5337 14.5322C48.4565 16.4834 49.094 18.5272 49.4765 20.6504C49.7942 22.4155 49.9182 24.1957 49.8487 25.9865C49.6845 30.2334 48.5232 34.1897 46.3457 37.8422C44.9077 40.254 43.107 42.3597 40.9572 44.1665C39.0405 45.777 36.9282 47.0687 34.6235 48.0452C33.0947 48.693 31.5152 49.1787 29.8882 49.508C27.974 49.8952 26.0387 50.0597 24.0882 49.9807C23.245 49.9467 22.4012 49.8682 21.5635 49.7637C19.3715 49.4902 17.2617 48.899 15.2287 48.0377C12.6645 46.9512 10.3445 45.477 8.27548 43.6127C5.56848 41.1737 3.48497 38.284 2.03597 34.939C1.24723 33.1175 0.691475 31.2272 0.356725 29.2705C0.068475 27.5852 -0.050525 25.8874 0.019475 24.1812C0.257225 18.3904 2.25172 13.2777 5.99973 8.85795C7.78797 6.74945 9.88923 5.0042 12.269 3.5957C12.3 3.57745 12.333 3.5622 12.3902 3.5327" id="Fill-1" fill="#FFC700" fill-rule="evenodd" stroke="none" />
    </g>
    <path d="M24.9319 32.6641C20.7407 32.6629 17.3347 29.2549 17.3391 25.0609C17.3437 20.8371 20.7889 17.4146 25.0434 17.4724C29.1681 17.5284 32.5317 20.8844 32.5299 25.0789C32.5281 29.2636 29.1181 32.6654 24.9319 32.6641" id="Fill-4" fill="#FFC700" fill-rule="evenodd" stroke="none" />
  </g>
</svg>